<svg width="16" height="17" viewBox="0 0 16 17" fill="none" xmlns="http://www.w3.org/2000/svg">
<path d="M14.5118 1.56238C14.4778 1.11568 14.2679 0.700729 13.9282 0.408665C13.5886 0.116602 13.1468 -0.0286861 12.7001 0.00471525L3.70834 0.680227C3.26111 0.713944 2.8456 0.92394 2.5532 1.26402C2.26081 1.6041 2.11548 2.0464 2.1492 2.49363C2.18292 2.94085 2.39292 3.35636 2.73299 3.64876C3.07307 3.94115 3.51537 4.08648 3.9626 4.05276L8.88398 3.68252L0.408667 13.54C0.116366 13.88 -0.0289099 14.3221 0.00479701 14.7692C0.0385036 15.2163 0.248432 15.6317 0.588401 15.924C0.928371 16.2163 1.37053 16.3615 1.81761 16.3278C2.2647 16.2941 2.68008 16.0842 2.97238 15.7442L11.4477 5.88677L11.8187 10.8073C11.8354 11.0287 11.8955 11.2447 11.9957 11.4429C12.0958 11.6411 12.2341 11.8177 12.4025 11.9624C12.5708 12.1072 12.7661 12.2174 12.9771 12.2867C13.1881 12.356 13.4106 12.3831 13.6321 12.3664C13.8535 12.3497 14.0695 12.2896 14.2677 12.1894C14.4659 12.0893 14.6424 11.951 14.7872 11.7826C14.932 11.6142 15.0422 11.419 15.1115 11.208C15.1808 10.997 15.2079 10.7745 15.1912 10.553L14.5118 1.56238Z" fill="#0ABAB5"/>
</svg>
