<svg width="52" height="41" viewBox="0 0 52 41" fill="none" xmlns="http://www.w3.org/2000/svg">
<path fill-rule="evenodd" clip-rule="evenodd" d="M25.5833 0C27.3025 0 28.7429 1.12567 29.6741 2.05946C30.7333 3.12117 31.754 4.56151 32.6418 6.22954C33.7879 8.39133 34.7805 11.0648 35.3383 14.0529C36.8835 13.2478 38.5116 12.613 40.194 12.1598C41.4552 11.8297 42.6832 11.6481 43.7731 11.6737C44.7197 11.6967 46.1626 11.8835 47.2012 12.9221C48.2783 13.9992 48.5111 15.6007 48.4369 17.059C48.3653 18.4098 48.0199 19.9703 47.452 21.5847C46.7447 23.5596 45.8106 25.4457 44.6685 27.2053C45.7632 27.6173 46.8167 28.1312 47.8152 28.7403C49.4014 29.7278 51.1667 31.2193 51.1667 33.2583C51.1667 34.1665 50.8008 34.9008 50.4785 35.3817C49.427 36.9679 47.6157 38.004 45.9323 38.7792C43.3023 39.9893 39.7411 40.9333 35.8167 40.9333C31.8512 40.9333 28.244 39.9714 25.5833 38.7255C22.9227 39.9714 19.3154 40.9333 15.35 40.9333C11.4255 40.9333 7.86432 39.9893 5.23435 38.7792C3.55097 38.004 1.73967 36.9679 0.688192 35.3843C0.252979 34.7596 0.013423 34.0196 0 33.2583C0 31.2193 1.76525 29.7278 3.35142 28.7429C4.34985 28.1329 5.4034 27.6181 6.49817 27.2053C5.35607 25.4457 4.42201 23.5596 3.7147 21.5847C3.14675 19.9703 2.80137 18.4123 2.72974 17.059C2.65299 15.6007 2.8858 13.9992 3.96542 12.9221C5.0041 11.8835 6.447 11.6941 7.39358 11.6737C8.48343 11.6481 9.71143 11.8297 10.9727 12.1598C12.6551 12.613 14.2832 13.2478 15.8284 14.0529C16.3302 11.3244 17.2401 8.68704 18.5274 6.22954C19.4126 4.56151 20.4334 3.12117 21.4951 2.05946C22.4238 1.12567 23.8616 0 25.5833 0ZM41.3043 31.4701C39.7168 33.126 37.9363 34.5853 36.0009 35.8167C39.0658 35.786 41.8287 35.0364 43.791 34.1333C44.4434 33.8314 44.9729 33.5321 45.3772 33.2583C44.1492 32.4294 42.7242 31.8768 41.3043 31.4701ZM9.86237 31.4701C8.4425 31.8794 7.02007 32.4294 5.78951 33.2583C6.19372 33.5321 6.7233 33.8314 7.37567 34.1333C9.33792 35.0364 12.1009 35.786 15.1658 35.8167C13.2302 34.5845 11.4497 33.1243 9.86237 31.4675V31.4701ZM26.0515 5.67182C25.6166 5.23691 25.5501 5.23691 25.1152 5.67182C24.496 6.2935 23.7592 7.28869 23.0455 8.62926C21.3556 11.8925 20.4714 15.5127 20.4667 19.1875C20.4714 22.8623 21.3556 26.4825 23.0455 29.7457C23.7592 31.0863 24.4986 32.0841 25.1177 32.7032C25.5501 33.1381 25.6166 33.1381 26.0515 32.7032C26.6706 32.0841 27.4074 31.0863 28.1212 29.7457C29.811 26.4825 30.6953 22.8623 30.7 19.1875C30.6953 15.5127 29.811 11.8925 28.1212 8.62926C27.4074 7.28869 26.6706 6.2935 26.0515 5.67182ZM7.84129 16.7955C7.87967 17.5323 8.08689 18.5965 8.53972 19.8859C9.44537 22.4596 11.2081 25.591 13.9148 28.2977C15.2413 29.6212 16.7211 30.7815 18.3228 31.754C16.4452 27.9998 15.4312 23.873 15.3551 19.6761C13.3084 18.3714 11.2976 17.5323 9.67817 17.1101C9.07772 16.9451 8.46245 16.8397 7.84129 16.7955ZM43.3254 16.7955C42.8649 16.821 42.2458 16.9131 41.4885 17.1101C39.8691 17.5323 37.8582 18.3714 35.8115 19.6761C35.7351 23.8722 34.7211 27.998 32.8439 31.7515C34.4454 30.7797 35.9252 29.6203 37.2519 28.2977C39.9586 25.591 41.7213 22.4596 42.6244 19.8859C43.0798 18.5965 43.287 17.5323 43.3254 16.7955Z" fill="#0ABAB5"/>
</svg>
