<svg width="42" height="38" viewBox="0 0 42 38" fill="none" xmlns="http://www.w3.org/2000/svg">
<path d="M31.25 33.3333H35.4167V16.6667H22.9167V33.3333H27.0833V20.8333H31.25V33.3333ZM2.08333 33.3333V2.08333C2.08333 1.5308 2.30283 1.00089 2.69353 0.610194C3.08423 0.219493 3.61413 0 4.16667 0H33.3333C33.8859 0 34.4158 0.219493 34.8065 0.610194C35.1972 1.00089 35.4167 1.5308 35.4167 2.08333V12.5H39.5833V33.3333H41.6667V37.5H0V33.3333H2.08333ZM10.4167 16.6667V20.8333H14.5833V16.6667H10.4167ZM10.4167 25V29.1667H14.5833V25H10.4167ZM10.4167 8.33333V12.5H14.5833V8.33333H10.4167Z" fill="#0ABAB5"/>
</svg>
