<svg width="53" height="48" viewBox="0 0 53 48" fill="none" xmlns="http://www.w3.org/2000/svg">
<path d="M28.7397 2.46343V6.56915H31.975C32.9735 6.56915 33.9556 6.83191 34.8228 7.32789L39.0599 9.74533C39.1869 9.81759 39.3226 9.85372 39.4671 9.85372H46.8049C47.4582 9.85372 48.0848 10.1133 48.5468 10.5752C49.0088 11.0372 49.2683 11.6638 49.2683 12.3172C49.2683 12.9705 49.0088 13.5971 48.5468 14.0591C48.0848 14.521 47.4582 14.7806 46.8049 14.7806H45.4024L52.3361 30.1918C52.541 30.6477 52.6023 31.1552 52.512 31.6468C52.4217 32.1385 52.1839 32.591 51.8303 32.9443L50.0895 31.2035L51.827 32.9476L51.8237 32.9541L51.8171 32.9607L51.7974 32.9804L51.7777 32.9968L51.7449 33.0297L51.5971 33.1611C50.9029 33.7413 50.1519 34.234 49.3439 34.6391C47.81 35.4077 45.5896 36.1303 42.6992 36.1303C40.3984 36.1572 38.1231 35.6466 36.0545 34.6391C35.248 34.2365 34.4918 33.7404 33.8012 33.1611L33.6534 33.0297L33.6009 32.9804L33.5812 32.9607L33.568 32.9476V32.9443C33.2144 32.591 32.9767 32.1385 32.8863 31.6468C32.796 31.1552 32.8573 30.6477 33.0622 30.1918L39.9992 14.7806H39.4671C38.4653 14.7806 37.4833 14.5211 36.6161 14.0218L32.379 11.6044C32.255 11.5335 32.1146 11.4961 31.9717 11.496H28.7397V42.6995H36.9512C37.6045 42.6995 38.2311 42.959 38.6931 43.421C39.155 43.883 39.4146 44.5096 39.4146 45.1629C39.4146 45.8162 39.155 46.4428 38.6931 46.9048C38.2311 47.3668 37.6045 47.6263 36.9512 47.6263H15.6014C14.9481 47.6263 14.3215 47.3668 13.8595 46.9048C13.3975 46.4428 13.138 45.8162 13.138 45.1629C13.138 44.5096 13.3975 43.883 13.8595 43.421C14.3215 42.959 14.9481 42.6995 15.6014 42.6995H23.8129V11.496H20.5808C20.438 11.4961 20.2976 11.5335 20.1735 11.6044L15.9397 14.0251C15.0693 14.5178 14.0872 14.7806 13.0854 14.7806H12.5533L19.4904 30.1918C19.6953 30.6477 19.7566 31.1552 19.6663 31.6468C19.5759 32.1385 19.3381 32.591 18.9845 32.9443L17.2437 31.2035L18.9812 32.9476L18.978 32.9541L18.9714 32.9607L18.9517 32.9804L18.8991 33.0297L18.7513 33.1611C18.0572 33.7413 17.3061 34.234 16.4981 34.6391C14.9642 35.4077 12.7438 36.1303 9.85342 36.1303C7.55264 36.1572 5.27736 35.6466 3.20872 34.6391C2.4023 34.2365 1.64604 33.7404 0.955504 33.1611L0.807699 33.0297L0.755145 32.9804L0.735438 32.9607L0.7223 32.9476V32.9443C0.368688 32.591 0.130921 32.1385 0.040574 31.6468C-0.0497727 31.1552 0.011577 30.6477 0.216475 30.1918L7.1535 14.7806H5.7477C5.09436 14.7806 4.46777 14.521 4.00579 14.0591C3.54381 13.5971 3.28427 12.9705 3.28427 12.3172C3.28427 11.6638 3.54381 11.0372 4.00579 10.5752C4.46777 10.1133 5.09436 9.85372 5.7477 9.85372H13.0854C13.2294 9.85422 13.371 9.81684 13.496 9.74533L17.7265 7.3246C18.597 6.83191 19.579 6.56915 20.5808 6.56915H23.8129V2.46343C23.8129 1.81009 24.0724 1.18351 24.5344 0.721522C24.9964 0.259539 25.6229 0 26.2763 0C26.9296 0 27.5562 0.259539 28.0182 0.721522C28.4802 1.18351 28.7397 1.81009 28.7397 2.46343ZM38.4128 30.3068C39.3489 30.7502 40.7711 31.2035 42.6992 31.2035C44.6272 31.2035 46.0494 30.7502 46.9855 30.3068L42.6992 20.7815L38.4128 30.3068ZM5.56705 30.3068C6.50315 30.7502 7.92537 31.2035 9.85342 31.2035C11.7815 31.2035 13.2037 30.7502 14.1398 30.3068L9.85342 20.7815L5.56705 30.3068Z" fill="white"/>
</svg>
