<svg width="40" height="40" viewBox="0 0 40 40" fill="none" xmlns="http://www.w3.org/2000/svg">
<rect width="40" height="40" rx="20" fill="white"/>
<path d="M28.6655 17.4152C28.6655 17.6566 28.468 17.8553 28.2265 17.8432C26.9365 17.7785 25.6766 17.43 24.5368 16.8225C24.2284 16.6579 23.8366 16.8719 23.8366 17.222V23.3416C23.8365 24.6253 23.4612 25.881 22.7569 26.9542C22.0526 28.0274 21.05 28.8713 19.8724 29.3822C18.6948 29.8931 17.3935 30.0487 16.1287 29.8298C14.8638 29.6109 13.6905 29.027 12.7531 28.1501C11.8156 27.2732 11.155 26.1414 10.8523 24.8939C10.5496 23.6464 10.6182 22.3377 11.0495 21.1287C11.4808 19.9196 12.2561 18.863 13.28 18.0888C14.3039 17.3146 15.5318 16.8565 16.8126 16.7709C16.8698 16.7679 16.9271 16.7767 16.9808 16.7968C17.0344 16.8169 17.0834 16.8478 17.1246 16.8877C17.1658 16.9275 17.1983 16.9755 17.2202 17.0284C17.242 17.0814 17.2527 17.1384 17.2516 17.1957V20.2687C17.2516 20.5101 17.054 20.7044 16.8148 20.7439C16.3195 20.8272 15.8583 21.0503 15.4856 21.3871C15.113 21.7238 14.8444 22.1601 14.7115 22.6445C14.5786 23.1289 14.5869 23.6411 14.7356 24.1209C14.8842 24.6007 15.167 25.0279 15.5504 25.3523C15.9339 25.6767 16.4021 25.8847 16.8999 25.9518C17.3976 26.0189 17.9042 25.9422 18.3599 25.7309C18.8155 25.5195 19.2012 25.1823 19.4715 24.759C19.7419 24.3357 19.8855 23.8439 19.8856 23.3416V9.51322C19.8856 9.39679 19.9318 9.28513 20.0142 9.2028C20.0965 9.12047 20.2081 9.07422 20.3246 9.07422H23.3976C23.5149 9.07721 23.627 9.12385 23.7118 9.20503C23.7966 9.2862 23.8482 9.39609 23.8563 9.51322C23.9589 10.6378 24.4525 11.6909 25.2511 12.4894C26.0498 13.2878 27.103 13.7811 28.2276 13.8834C28.4691 13.9054 28.6666 14.0996 28.6666 14.3422L28.6655 17.4152Z" fill="#54CFCC" stroke="#54CFCC" stroke-width="1.5" stroke-linecap="round" stroke-linejoin="round"/>
</svg>
