<svg width="47" height="47" viewBox="0 0 47 47" fill="none" xmlns="http://www.w3.org/2000/svg">
<path d="M23.3333 0C36.2203 0 46.6667 10.4463 46.6667 23.3333C46.6667 36.2203 36.2203 46.6667 23.3333 46.6667C10.4463 46.6667 0 36.2203 0 23.3333C0 10.4463 10.4463 0 23.3333 0ZM23.3333 9.33333C22.7145 9.33333 22.121 9.57917 21.6834 10.0168C21.2458 10.4543 21 11.0478 21 11.6667V23.3333C21.0001 23.9521 21.2461 24.5455 21.6837 24.983L28.6837 31.983C29.1237 32.408 29.7131 32.6432 30.3249 32.6379C30.9367 32.6326 31.522 32.3872 31.9546 31.9546C32.3872 31.522 32.6326 30.9367 32.6379 30.3249C32.6432 29.7131 32.408 29.1237 31.983 28.6837L25.6667 22.3673V11.6667C25.6667 11.0478 25.4208 10.4543 24.9832 10.0168C24.5457 9.57917 23.9522 9.33333 23.3333 9.33333Z" fill="white"/>
</svg>
