<svg width="150" height="35" viewBox="0 0 150 35" fill="none" xmlns="http://www.w3.org/2000/svg">
<g clip-path="url(#clip0_620_3828)">
<path d="M13.8952 33.3455H8.23782V11.2981H0.426186V6.7002H21.7255V11.2981H13.8952V33.3455Z" fill="white"/>
<path d="M21.8373 33.3455V13.5507H27.12V17.1145H27.2324C27.9443 14.6033 29.649 13.2368 32.0093 13.2368C32.6462 13.2368 33.1895 13.3291 33.5642 13.4399V18.1855C33.1145 18.0009 32.3652 17.8716 31.5785 17.8716C28.8809 17.8716 27.3074 19.4965 27.3074 22.2848V33.3455H21.8373Z" fill="white"/>
<path d="M54.3586 13.5503V33.345H49.0758V29.7812H48.9633C47.9704 32.274 45.9851 33.7143 42.9501 33.7143C38.6041 33.7143 35.7193 30.9261 35.7193 26.3098V13.5503H41.1893V25.1834C41.1893 27.8239 42.5193 29.2273 44.9359 29.2273C47.3713 29.2273 48.8883 27.51 48.8883 24.8879V13.5503H54.3586Z" fill="white"/>
<path d="M57.5789 19.3682C57.5789 15.6013 60.8947 13.127 66.0462 13.127C71.0853 13.127 74.3635 15.6382 74.4385 19.479H69.3995C69.287 17.891 67.9945 16.9123 65.9712 16.9123C64.0792 16.9123 62.8429 17.7617 62.8429 19.0358C62.8429 20.0144 63.7046 20.6792 65.4654 21.0854L69.3057 21.8979C73.3331 22.7843 74.9631 24.3538 74.9631 27.3082C74.9631 31.2044 71.3286 33.771 66.0275 33.771C60.6697 33.771 57.3726 31.2228 57.0731 27.3636H62.4121C62.6742 29.0255 64.0042 29.9857 66.177 29.9857C68.2566 29.9857 69.5116 29.1732 69.5116 27.8806C69.5116 26.8835 68.8374 26.3296 67.0391 25.9049L63.33 25.0924C59.5272 24.243 57.5789 22.2857 57.5789 19.3682Z" fill="white"/>
<path d="M79.1605 8.98975H84.6304V13.5507H88.3394V17.613H84.6304V27.0857C84.6304 28.5998 85.3795 29.32 86.9907 29.32C87.4778 29.32 87.9836 29.283 88.3207 29.2276V33.1976C87.7586 33.3269 86.822 33.4192 85.717 33.4192C80.9963 33.4192 79.1605 31.8681 79.1605 28.009V17.613H76.3318V13.5507H79.1605V8.98975Z" fill="white"/>
<path d="M140.095 17.1154C137.697 17.1154 135.974 18.9065 135.786 21.3809H144.31C144.197 18.8511 142.53 17.1154 140.095 17.1154ZM144.385 27.2898H149.405C148.806 31.1675 145.209 33.771 140.245 33.771C134.063 33.771 130.354 29.8749 130.354 23.5413C130.354 17.2262 134.1 13.127 140.039 13.127C145.884 13.127 149.574 17.0231 149.574 23.0427V24.6861H135.73V25.0185C135.73 27.8437 137.547 29.7826 140.339 29.7826C142.343 29.7826 143.879 28.8039 144.385 27.2898Z" fill="white"/>
<path fill-rule="evenodd" clip-rule="evenodd" d="M126.092 18.3185C126.248 18.3814 126.35 18.5298 126.35 18.6945V30.2049C126.35 31.3646 125.876 32.4768 125.033 33.2968C124.189 34.1169 123.046 34.5775 121.852 34.5775H121.851C120.658 34.5775 119.514 34.1169 118.67 33.2968C117.827 32.4768 117.353 31.3646 117.353 30.2049V26.9136C117.353 26.6445 117.463 26.3866 117.658 26.196L125.635 18.4075C125.755 18.2908 125.935 18.2557 126.092 18.3185ZM92.9382 18.3185C92.7818 18.3814 92.6796 18.5298 92.6796 18.6945V30.2049C92.6796 31.3646 93.1534 32.4768 93.9972 33.2968C94.8405 34.1169 95.9851 34.5775 97.1778 34.5775H97.1787C98.3715 34.5775 99.5161 34.1169 100.359 33.2968C101.203 32.4768 101.677 31.3646 101.677 30.2049V26.9136C101.677 26.6445 101.568 26.3866 101.372 26.196C100.105 24.9596 95.2398 20.2089 93.3946 18.4075C93.2753 18.2908 93.0946 18.2557 92.9382 18.3185ZM93.9217 11.5547C92.2658 13.1644 92.2658 15.7743 93.9217 17.384L106.309 29.4254C107.157 30.2498 108.307 30.713 109.506 30.713C110.706 30.713 111.857 30.2498 112.704 29.4254C116.188 26.0388 121.717 20.6637 125.12 17.3565C126.774 15.7482 126.774 13.1406 125.12 11.5323L125.119 11.532C123.465 9.92353 120.782 9.92353 119.127 11.532C115.397 15.1579 109.512 20.8797 109.512 20.8797C109.512 20.8797 103.643 15.1747 99.9188 11.5545C98.2624 9.94478 95.5773 9.94491 93.9217 11.5547ZM101.714 4.8091C101.714 2.38718 99.6908 0.420898 97.1992 0.420898C94.708 0.420898 92.6851 2.38718 92.6851 4.8091C92.6851 7.23093 94.708 9.19725 97.1992 9.19725C99.6908 9.19725 101.714 7.23093 101.714 4.8091ZM126.361 4.8091C126.361 2.38718 124.338 0.420898 121.847 0.420898C119.355 0.420898 117.332 2.38718 117.332 4.8091C117.332 7.23093 119.355 9.19725 121.847 9.19725C124.338 9.19725 126.361 7.23093 126.361 4.8091Z" fill="white"/>
</g>
<defs>
<clipPath id="clip0_620_3828">
<rect width="150" height="35" fill="white"/>
</clipPath>
</defs>
</svg>
