<svg width="150" height="35" viewBox="0 0 150 35" fill="none" xmlns="http://www.w3.org/2000/svg">
<g clip-path="url(#clip0_620_3468)">
<path d="M13.8952 33.3455H8.23782V11.2981H0.426186V6.7002H21.7255V11.2981H13.8952V33.3455Z" fill="#0ABAB5"/>
<path d="M21.8373 33.3456V13.5509H27.12V17.1147H27.2324C27.9443 14.6034 29.649 13.237 32.0093 13.237C32.6462 13.237 33.1895 13.3293 33.5642 13.4401V18.1856C33.1145 18.001 32.3652 17.8717 31.5785 17.8717C28.8809 17.8717 27.3074 19.4967 27.3074 22.2849V33.3456H21.8373Z" fill="#0ABAB5"/>
<path d="M54.3586 13.5503V33.345H49.0758V29.7812H48.9633C47.9704 32.274 45.9851 33.7143 42.9501 33.7143C38.6041 33.7143 35.7193 30.9261 35.7193 26.3098V13.5503H41.1893V25.1834C41.1893 27.8239 42.5193 29.2273 44.9359 29.2273C47.3713 29.2273 48.8883 27.51 48.8883 24.888V13.5503H54.3586Z" fill="#0ABAB5"/>
<path d="M57.5789 19.368C57.5789 15.6011 60.8947 13.1268 66.0462 13.1268C71.0853 13.1268 74.3635 15.6381 74.4385 19.4788H69.3995C69.287 17.8908 67.9945 16.9122 65.9712 16.9122C64.0792 16.9122 62.8429 17.7616 62.8429 19.0356C62.8429 20.0143 63.7046 20.679 65.4654 21.0853L69.3057 21.8978C73.3331 22.7841 74.9631 24.3536 74.9631 27.3081C74.9631 31.2042 71.3286 33.7709 66.0275 33.7709C60.6697 33.7709 57.3726 31.2227 57.0731 27.3634H62.4121C62.6742 29.0253 64.0042 29.9855 66.177 29.9855C68.2566 29.9855 69.5116 29.1731 69.5116 27.8805C69.5116 26.8834 68.8374 26.3294 67.0391 25.9047L63.33 25.0922C59.5272 24.2428 57.5789 22.2855 57.5789 19.368Z" fill="#0ABAB5"/>
<path d="M79.1605 8.98996H84.6304V13.5509H88.3394V17.6132H84.6304V27.0859C84.6304 28.6 85.3795 29.3202 86.9907 29.3202C87.4778 29.3202 87.9836 29.2833 88.3207 29.2278V33.1979C87.7586 33.3271 86.822 33.4195 85.717 33.4195C80.9963 33.4195 79.1605 31.8684 79.1605 28.0092V17.6132H76.3318V13.5509H79.1605V8.98996Z" fill="#0ABAB5"/>
<path d="M140.095 17.1153C137.697 17.1153 135.974 18.9064 135.786 21.3807H144.31C144.197 18.851 142.53 17.1153 140.095 17.1153ZM144.385 27.2896H149.405C148.806 31.1673 145.209 33.7709 140.245 33.7709C134.063 33.7709 130.354 29.8747 130.354 23.5412C130.354 17.2261 134.1 13.1268 140.039 13.1268C145.884 13.1268 149.574 17.0229 149.574 23.0426V24.686H135.73V25.0184C135.73 27.8436 137.547 29.7824 140.339 29.7824C142.343 29.7824 143.879 28.8038 144.385 27.2896Z" fill="#0ABAB5"/>
<path fill-rule="evenodd" clip-rule="evenodd" d="M126.092 18.3186C126.248 18.3815 126.35 18.5299 126.35 18.6946V30.205C126.35 31.3647 125.876 32.4769 125.033 33.2969C124.189 34.117 123.046 34.5776 121.852 34.5776H121.851C120.658 34.5776 119.514 34.117 118.67 33.2969C117.827 32.4769 117.353 31.3647 117.353 30.205V26.9137C117.353 26.6446 117.463 26.3866 117.658 26.1961L125.635 18.4076C125.755 18.2908 125.935 18.2558 126.092 18.3186ZM92.9382 18.3186C92.7818 18.3815 92.6796 18.5299 92.6796 18.6946V30.205C92.6796 31.3647 93.1534 32.4769 93.9972 33.2969C94.8405 34.117 95.9851 34.5776 97.1778 34.5776H97.1787C98.3715 34.5776 99.5161 34.117 100.359 33.2969C101.203 32.4769 101.677 31.3647 101.677 30.205V26.9137C101.677 26.6446 101.568 26.3866 101.372 26.1961C100.105 24.9597 95.2398 20.209 93.3946 18.4076C93.2753 18.2908 93.0946 18.2558 92.9382 18.3186ZM93.9217 11.5547C92.2658 13.1644 92.2658 15.7743 93.9217 17.3841L106.309 29.4255C107.157 30.2499 108.307 30.7131 109.506 30.7131C110.706 30.7131 111.857 30.2499 112.704 29.4255C116.188 26.0389 121.717 20.6638 125.12 17.3566C126.774 15.7482 126.774 13.1407 125.12 11.5324L125.119 11.532C123.465 9.92361 120.782 9.92361 119.127 11.532C115.397 15.158 109.512 20.8798 109.512 20.8798C109.512 20.8798 103.643 15.1747 99.9188 11.5546C98.2624 9.94486 95.5773 9.94499 93.9217 11.5547ZM101.714 4.80918C101.714 2.38727 99.6908 0.420982 97.1992 0.420982C94.708 0.420982 92.6851 2.38727 92.6851 4.80918C92.6851 7.23101 94.708 9.19734 97.1992 9.19734C99.6908 9.19734 101.714 7.23101 101.714 4.80918ZM126.361 4.80918C126.361 2.38727 124.338 0.420982 121.847 0.420982C119.355 0.420982 117.332 2.38727 117.332 4.80918C117.332 7.23101 119.355 9.19734 121.847 9.19734C124.338 9.19734 126.361 7.23101 126.361 4.80918Z" fill="#0ABAB5"/>
</g>
<defs>
<clipPath id="clip0_620_3468">
<rect width="150" height="35" fill="white"/>
</clipPath>
</defs>
</svg>
